<svg width="28" height="29" viewBox="0 0 28 29" fill="none" xmlns="http://www.w3.org/2000/svg">
<path d="M14 2.67419C7.3856 2.67419 2 8.05499 2 14.6742C2 21.2934 7.3808 26.6742 14 26.6742C20.6144 26.6742 26 21.2934 26 14.6742C26 8.05499 20.6144 2.67419 14 2.67419ZM14 25.7142C7.9136 25.7142 2.96 20.7606 2.96 14.6742C2.96 8.58779 7.9136 3.63419 14 3.63419C20.0864 3.63419 25.04 8.58779 25.04 14.6742C25.04 20.7606 20.0864 25.7142 14 25.7142Z" fill="white"/>
<path d="M18.5208 14.165H14.5091V10.1534C14.5091 9.87338 14.28 9.64429 14 9.64429C13.72 9.64429 13.4909 9.87338 13.4909 10.1534V14.165H9.47931C9.19931 14.165 8.97021 14.3941 8.97021 14.6741C8.97021 14.9541 9.19931 15.1832 9.47931 15.1832H13.4909V19.1948C13.4909 19.4748 13.72 19.7039 14 19.7039C14.28 19.7039 14.5091 19.4748 14.5091 19.1948V15.1832H18.5208C18.8008 15.1832 19.0299 14.9541 19.0299 14.6741C19.0299 14.3941 18.8008 14.165 18.5208 14.165Z" fill="white"/>
</svg>
