<svg width="28" height="29" viewBox="0 0 28 29" fill="none" xmlns="http://www.w3.org/2000/svg">
<path d="M24.9375 14.2367V7.23669C24.9375 6.77257 24.7531 6.32745 24.4249 5.99926C24.0967 5.67107 23.6516 5.48669 23.1875 5.48669H4.8125C4.34837 5.48669 3.90325 5.67107 3.57506 5.99926C3.24687 6.32745 3.0625 6.77257 3.0625 7.23669V22.1117C3.0625 22.5758 3.24687 23.0209 3.57506 23.3491C3.90325 23.6773 4.34837 23.8617 4.8125 23.8617H15.3125" stroke="white" stroke-linecap="round" stroke-linejoin="round"/>
<path d="M3.0625 8.98669H24.9375" stroke="white" stroke-linecap="round" stroke-linejoin="round"/>
<path d="M21.4376 15.1992C22.4093 15.3993 23.2841 15.9237 23.9185 16.6863C24.5529 17.4489 24.9094 18.4045 24.9293 19.3964C24.9492 20.3882 24.6315 21.3574 24.0282 22.1449C23.4249 22.9324 22.5719 23.4915 21.6091 23.7305C20.6463 23.9694 19.6309 23.8741 18.7294 23.4601C17.8278 23.0461 17.0938 22.338 16.6476 21.452C16.2015 20.5659 16.0697 19.5546 16.2739 18.5838C16.478 17.613 17.0061 16.7404 17.7714 16.1092" stroke="white" stroke-linecap="round" stroke-linejoin="round"/>
<path d="M17.9375 17.7367V15.9867H16.1875" stroke="white" stroke-linecap="round" stroke-linejoin="round"/>
</svg>
