<svg xmlns="http://www.w3.org/2000/svg" xmlns:xlink="http://www.w3.org/1999/xlink" width="500" zoomAndPan="magnify" viewBox="0 0 375 374.999991" height="500" preserveAspectRatio="xMidYMid meet" version="1.0"><defs><filter x="0%" y="0%" width="100%" height="100%" id="id1"><feColorMatrix values="0 0 0 0 1 0 0 0 0 1 0 0 0 0 1 0 0 0 1 0" color-interpolation-filters="sRGB"/></filter><clipPath id="id2"><path d="M 114.824219 90.679688 L 333.824219 90.679688 L 333.824219 130.429688 L 114.824219 130.429688 Z M 114.824219 90.679688 " clip-rule="nonzero"/></clipPath><mask id="id3"><g filter="url(#id1)"><rect x="-37.5" width="450" fill="#000000" y="-37.499999" height="449.999989" fill-opacity="0.8"/></g></mask><clipPath id="id4"><path d="M 0.5 0.101562 L 220.25 0.101562 L 220.25 39.851562 L 0.5 39.851562 Z M 0.5 0.101562 " clip-rule="nonzero"/></clipPath><clipPath id="id5"><rect x="0" width="221" y="0" height="41"/></clipPath><mask id="id6"><g filter="url(#id1)"><rect x="-37.5" width="450" fill="#000000" y="-37.499999" height="449.999989" fill-opacity="0.6"/></g></mask><clipPath id="id7"><path d="M 0.175781 0.765625 L 219.175781 0.765625 L 219.175781 40.515625 L 0.175781 40.515625 Z M 0.175781 0.765625 " clip-rule="nonzero"/></clipPath><clipPath id="id8"><rect x="0" width="220" y="0" height="41"/></clipPath></defs><g clip-path="url(#id2)"><path fill="#a466ff" d="M 292.300781 90.679688 L 166.128906 90.679688 L 156.664062 90.726562 L 114.828125 130.429688 L 292.660156 130.429688 L 333.824219 90.679688 L 292.300781 90.679688 " fill-opacity="1" fill-rule="nonzero"/></g><g mask="url(#id3)"><g transform="matrix(1, 0, 0, 1, 37, 167)"><g clip-path="url(#id5)"><g clip-path="url(#id4)"><path fill="#a466ff" d="M 178.566406 0.101562 L 51.988281 0.101562 L 42.496094 0.148438 L 0.523438 39.851562 L 178.929688 39.851562 L 220.226562 0.101562 L 178.566406 0.101562 " fill-opacity="1" fill-rule="nonzero"/></g></g></g></g><g mask="url(#id6)"><g transform="matrix(1, 0, 0, 1, 83, 244)"><g clip-path="url(#id8)"><g clip-path="url(#id7)"><path fill="#a466ff" d="M 177.648438 0.765625 L 51.476562 0.765625 L 42.015625 0.8125 L 0.175781 40.515625 L 178.011719 40.515625 L 219.171875 0.765625 L 177.648438 0.765625 " fill-opacity="1" fill-rule="nonzero"/></g></g></g></g></svg>