<svg preserveAspectRatio="xMidYMid meet" data-bbox="12.31 122.348 704.549 129.938" height="500" viewBox="12.31 122.348 704.549 129.938" width="1000" xmlns="http://www.w3.org/2000/svg" data-type="color" role="presentation" aria-hidden="true" aria-labelledby="svgcid--h2lvzf67srgm">
    <title id="svgcid--h2lvzf67srgm" />
    <g>
        <defs>
            <clipPath id="svgcid--sr10roi2woks">
                <path d="M64.332 122.348h147.75v26.25H64.332Zm0 0" />
            </clipPath>
            <clipPath id="svgcid-rk3e3q9eqtyx">
                <path d="M.297.773h147.75v27H.297Zm0 0" />
            </clipPath>
            <clipPath id="svgcid--lphgr3rdonm3">
                <path d="M149 0v28H0V0h149z" />
            </clipPath>
            <clipPath id="svgcid-12ukh5at2wpc">
                <path d="M1.035 1.035h147.75v26.25H1.035Zm0 0" />
            </clipPath>
            <clipPath id="svgcid-5su7el-brctmm">
                <path d="M150 0v28H0V0h150z" />
            </clipPath>
            <mask id="svgcid--gzd9af-2zk0kn">
                <g filter="url(#svgcid--yam95k3496q1)">
                    <path fillOpacity=".749" fill="#000000" d="M825-37.5v450H-75v-450h900z" />
                </g>
            </mask>
            <mask id="svgcid-b53sk0y3sz61">
                <g filter="url(#svgcid--yam95k3496q1)">
                    <path fillOpacity=".498" fill="#000000" d="M825-37.5v450H-75v-450h900z" />
                </g>
            </mask>
            <filter id="svgcid--yam95k3496q1" height="100%" width="100%" y="0%" x="0%">
                <feColorMatrix colorInterpolationFilters="sRGB" values="0 0 0 0 1 0 0 0 0 1 0 0 0 0 1 0 0 0 1 0" />
            </filter>
        </defs>
        <g clipPath="url(#svgcid--sr10roi2woks)">
            <path d="M184.063 122.348H98.948l-6.383.03-28.222 26.22h119.965l27.765-26.25h-28.012" fill="#a466ff" data-color="1" />
        </g>
        <g mask="url(#svgcid--gzd9af-2zk0kn)">
            <g clipPath="url(#svgcid--lphgr3rdonm3)" transform="translate(12 173)">
                <g clipPath="url(#svgcid-rk3e3q9eqtyx)">
                    <path d="M120.027.773H34.914l-6.383.032L.31 27.773h119.96l27.766-27h-28.008" fill="#a466ff" data-color="1" />
                </g>
            </g>
        </g>
        <g mask="url(#svgcid-b53sk0y3sz61)">
            <g clipPath="url(#svgcid-5su7el-brctmm)" transform="translate(42 225)">
                <g clipPath="url(#svgcid-12ukh5at2wpc)">
                    <path d="M120.766 1.035H35.648l-6.382.031-28.223 26.22h119.965l27.77-26.25h-28.012" fill="#a466ff" data-color="1" />
                </g>
            </g>
        </g>
        <path d="M292.568 218.86v4.64h-48.703v-70.578h47.187v4.64h-42.047v27.829h37.61v4.53h-37.61v28.938Zm0 0" fill="#ffffff" data-color="2" />
        <path d="M346.52 170.469c6.582 0 11.79 1.918 15.625 5.75 3.832 3.824 5.75 9.336 5.75 16.531v30.75h-5.047v-30.344c0-5.914-1.496-10.422-4.484-13.515-2.992-3.094-7.18-4.641-12.563-4.641-6.18 0-11.046 1.852-14.609 5.547-3.562 3.7-5.344 8.672-5.344 14.922V223.5h-5.047v-52.625h4.844v11.39c1.813-3.695 4.516-6.585 8.11-8.671 3.593-2.082 7.847-3.125 12.765-3.125Zm0 0" fill="#ffffff" data-color="2" />
        <path d="M444.22 198.39h-45.282c.133 4.106 1.176 7.758 3.125 10.954 1.957 3.187 4.598 5.656 7.922 7.406 3.32 1.742 7.07 2.61 11.25 2.61 3.426 0 6.598-.618 9.515-1.86 2.926-1.238 5.364-3.07 7.313-5.5l2.922 3.328c-2.281 2.762-5.156 4.883-8.625 6.36-3.461 1.48-7.203 2.218-11.235 2.218-5.242 0-9.914-1.14-14.015-3.422-4.106-2.289-7.32-5.453-9.64-9.484-2.313-4.031-3.47-8.633-3.47-13.813 0-5.113 1.094-9.703 3.282-13.765 2.187-4.063 5.191-7.234 9.015-9.516 3.832-2.289 8.133-3.437 12.907-3.437 4.78 0 9.066 1.125 12.859 3.375 3.8 2.25 6.79 5.39 8.969 9.422 2.187 4.03 3.281 8.605 3.281 13.718Zm-25.016-23.484c-3.688 0-7.012.824-9.97 2.469-2.96 1.648-5.327 3.965-7.108 6.953-1.782 2.992-2.81 6.371-3.079 10.14h40.328c-.199-3.769-1.21-7.132-3.03-10.093-1.813-2.957-4.2-5.273-7.157-6.953-2.96-1.676-6.29-2.516-9.984-2.516Zm0 0" fill="#ffffff" data-color="2" />
        <path d="M475.88 182.36c1.614-3.833 4.133-6.77 7.563-8.813 3.426-2.05 7.594-3.078 12.5-3.078v4.937l-1.219-.11c-5.844 0-10.414 1.837-13.703 5.5-3.293 3.669-4.938 8.763-4.938 15.282V223.5h-5.047v-52.625h4.844Zm0 0" fill="#ffffff" data-color="2" />
        <path d="M569.244 170.875v46.984c0 8.739-2.121 15.192-6.36 19.36-4.23 4.164-10.616 6.25-19.156 6.25-4.835 0-9.402-.742-13.703-2.219-4.304-1.48-7.765-3.531-10.39-6.156l2.718-3.828c2.625 2.414 5.786 4.297 9.485 5.64 3.695 1.344 7.629 2.016 11.797 2.016 6.988 0 12.16-1.668 15.515-5 3.364-3.324 5.047-8.48 5.047-15.469v-8.875c-2.148 3.836-5.136 6.793-8.969 8.875-3.835 2.086-8.136 3.125-12.906 3.125-4.906 0-9.36-1.086-13.36-3.266-4-2.187-7.148-5.226-9.437-9.125-2.28-3.906-3.422-8.312-3.422-13.218 0-4.906 1.141-9.305 3.422-13.203 2.29-3.895 5.438-6.914 9.438-9.063 4-2.156 8.453-3.234 13.36-3.234 4.843 0 9.21 1.078 13.109 3.234 3.894 2.149 6.882 5.168 8.968 9.063v-11.891Zm-26.516 46.172c4.094 0 7.786-.89 11.079-2.672 3.3-1.781 5.875-4.266 7.718-7.453 1.852-3.195 2.782-6.848 2.782-10.953 0-4.094-.93-7.719-2.782-10.875-1.843-3.164-4.418-5.64-7.718-7.422-3.293-1.781-6.985-2.672-11.079-2.672-4.105 0-7.789.89-11.046 2.672-3.262 1.781-5.82 4.258-7.672 7.422-1.844 3.156-2.766 6.781-2.766 10.875 0 4.105.922 7.758 2.766 10.953 1.851 3.187 4.41 5.672 7.672 7.453 3.257 1.781 6.941 2.672 11.046 2.672Zm0 0" fill="#ffffff" data-color="2" />
        <path d="m643.96 170.875-27.03 59.781c-2.012 4.633-4.344 7.926-7 9.875-2.657 1.957-5.798 2.938-9.423 2.938-2.43 0-4.699-.406-6.812-1.219-2.117-.805-3.91-1.98-5.39-3.531l2.515-3.828c2.687 2.757 5.945 4.14 9.781 4.14 2.55 0 4.735-.71 6.547-2.125 1.82-1.406 3.504-3.824 5.047-7.25l2.828-6.36-23.703-52.421h5.344l21.078 47.078 21.078-47.078Zm0 0" fill="#ffffff" data-color="2" />
        <path d="M681.868 152.625c-6.586 0-9.875 3.527-9.875 10.578v7.672h16.828v4.328h-16.735V223.5h-5.03v-48.297h-9.688v-4.328h9.687v-8.078c0-4.438 1.274-7.961 3.828-10.578 2.551-2.625 6.145-3.938 10.781-3.938 2.02 0 3.954.29 5.797.86 1.852.574 3.383 1.43 4.594 2.562l-2.015 3.844c-2.157-1.945-4.883-2.922-8.172-2.922Zm0 0" fill="#ffffff" data-color="2" />
        <path d="M710.202 170.875h5.047V223.5h-5.047Zm2.516-12.813c-1.148 0-2.121-.382-2.922-1.156-.804-.77-1.203-1.726-1.203-2.875 0-1.144.399-2.117 1.203-2.922.801-.812 1.774-1.218 2.922-1.218 1.145 0 2.117.39 2.922 1.172.813.773 1.219 1.726 1.219 2.859 0 1.148-.407 2.125-1.219 2.937-.805.805-1.777 1.203-2.922 1.203Zm0 0" fill="#ffffff" data-color="2" />
    </g>
</svg>