<svg xmlns="http://www.w3.org/2000/svg" xmlns:xlink="http://www.w3.org/1999/xlink" width="700" zoomAndPan="magnify" viewBox="0 0 525 525.000007" height="700" preserveAspectRatio="xMidYMid meet" version="1.0"><defs><clipPath id="id1"><path d="M 90 189 L 469 189 L 469 457 L 90 457 Z M 90 189 " clip-rule="nonzero"/></clipPath><clipPath id="id2"><path d="M 9.929688 337.714844 L 292.195312 -0.0234375 L 515.058594 186.230469 L 232.792969 523.972656 Z M 9.929688 337.714844 " clip-rule="nonzero"/></clipPath><clipPath id="id3"><path d="M 9.929688 337.714844 L 292.195312 -0.0234375 L 515.058594 186.230469 L 232.792969 523.972656 Z M 9.929688 337.714844 " clip-rule="nonzero"/></clipPath><clipPath id="id4"><path d="M 418 157 L 495 157 L 495 216 L 418 216 Z M 418 157 " clip-rule="nonzero"/></clipPath><clipPath id="id5"><path d="M 9.929688 337.714844 L 292.195312 -0.0234375 L 515.058594 186.230469 L 232.792969 523.972656 Z M 9.929688 337.714844 " clip-rule="nonzero"/></clipPath><clipPath id="id6"><path d="M 9.929688 337.714844 L 292.195312 -0.0234375 L 515.058594 186.230469 L 232.792969 523.972656 Z M 9.929688 337.714844 " clip-rule="nonzero"/></clipPath></defs><g clip-path="url(#id1)"><g clip-path="url(#id2)"><g clip-path="url(#id3)"><path fill="#a466ff" d="M 105.109375 407.835938 C 119.515625 434.84375 141.863281 450.777344 172.378906 455.089844 C 191.707031 457.820312 210.535156 455.449219 229.109375 450.242188 C 259.867188 441.621094 287.378906 426.402344 312.863281 407.492188 C 376.375 360.363281 423.277344 299.664062 457.691406 228.902344 C 461.421875 221.226562 464.652344 213.300781 467.558594 205.277344 C 469.417969 200.148438 467.144531 195.761719 462.972656 194.332031 C 459.214844 193.050781 455.046875 194.964844 452.652344 199.128906 C 452.058594 200.148438 451.691406 201.269531 451.230469 202.367188 C 427.660156 259.0625 394.105469 309.152344 350.984375 352.789062 C 321.8125 382.328125 289.398438 407.585938 251.265625 424.75 C 231.769531 433.53125 211.550781 439.476562 189.964844 439.886719 C 173.378906 440.191406 157.828125 436.558594 143.808594 427.472656 C 127.132812 416.675781 117.765625 400.621094 112.207031 382.097656 C 106.273438 362.34375 105.550781 342.09375 107.433594 321.734375 C 111.136719 282.21875 123.617188 245.246094 140.433594 209.582031 C 141.691406 206.917969 143.1875 204.339844 144.136719 201.566406 C 145.699219 196.929688 144.140625 192.746094 140.546875 190.828125 C 137.003906 188.921875 132.726562 190.175781 129.875 194.273438 C 128.207031 196.675781 126.808594 199.304688 125.601562 201.980469 C 121.273438 211.671875 117.085938 221.394531 114.453125 227.449219 C 100.550781 263.519531 91.742188 296.710938 90.402344 331.519531 C 89.386719 358.085938 92.386719 383.980469 105.109375 407.835938 Z M 105.109375 407.835938 " fill-opacity="1" fill-rule="nonzero"/></g></g></g><g clip-path="url(#id4)"><g clip-path="url(#id5)"><g clip-path="url(#id6)"><path fill="#a466ff" d="M 427.542969 206.046875 C 430.578125 205.386719 433.578125 203.777344 436.148438 201.929688 C 444.046875 196.308594 451.671875 190.257812 459.53125 184.578125 C 463.492188 181.71875 467.703125 179.242188 472.804688 175.9375 C 473.53125 182.140625 473.847656 187.058594 474.742188 191.863281 C 475.871094 197.890625 476.964844 204.03125 479.050781 209.769531 C 480.945312 214.980469 485.375 216.683594 489.589844 215.09375 C 493.804688 213.503906 495.246094 209.625 494.238281 204.101562 C 492.65625 195.4375 491.351562 186.75 489.921875 178.074219 C 489.304688 174.304688 489.140625 170.398438 488.027344 166.8125 C 485.617188 159 478.988281 155.800781 471.390625 158.703125 C 468.125 159.945312 464.882812 161.605469 462.0625 163.644531 C 448.488281 173.433594 435.003906 183.382812 421.589844 193.386719 C 418.714844 195.527344 417.816406 198.6875 419.453125 202.058594 C 421.054688 205.335938 424.246094 206.777344 427.542969 206.046875 Z M 427.542969 206.046875 " fill-opacity="1" fill-rule="nonzero"/></g></g></g></svg>