 <svg
      width="24"
      height="24"
      viewBox="0 0 126 99"
      fill="none"
    >
      <path d="M45.1066 0C38.987 0 33.4283 3.60017 30.8609 9.226L1.79957 72.8643C-2.70579 82.7348 1.53964 94.4376 11.2845 99L44.3223 26.656C46.2603 22.4113 50.4556 19.6904 55.0704 19.6904H106.554C117.293 19.6904 125.993 10.8788 125.993 0H45.1066ZM86.4118 78.2553H39.6756C31.5814 78.2553 25.0195 87.0716 25.0195 97.9457H71.7557C79.8499 97.9457 86.4118 89.1295 86.4118 78.2553ZM88.9655 58.284H42.2292C42.2292 47.4099 48.7912 38.5936 56.8853 38.5936H103.622C103.622 49.4678 97.0596 58.284 88.9655 58.284Z" fill="url(#paint0_linear_675_5492)" />
      <defs>
        <linearGradient id="paint0_linear_675_5492" x1="-171" y1="-25" x2="86.5" y2="153.5" gradientUnits="userSpaceOnUse">
          <stop stop-color="#A466FF" />
          <stop offset="1" stop-color="#A466FF" />
        </linearGradient>
      </defs>
    </svg>